<svg width="0" height="0" class="hidden">
  <symbol xmlns="http://www.w3.org/2000/svg" viewBox="0 0 512 512" id="file">
    <path d="M342.997 0H183.99c-33.089 0-60.009 26.916-60.009 60.001v19.937h-20.003c-33.089 0-60.009 26.92-60.009 60.009v312.045c0 33.089 26.92 60.009 60.009 60.009h234.034c33.089 0 60.009-26.92 60.009-60.009v-20l10.001-.003c33.089 0 60.009-26.916 60.009-60.001V125.746L342.997 0zm11.017 67.818l45.864 46.124h-25.861c-11.03 0-20.003-8.973-20.003-20.003V67.818zm4.001 384.173c0 11.03-8.973 20.003-20.003 20.003H103.978c-11.03 0-20.003-8.973-20.003-20.003V139.946c0-11.03 8.973-20.003 20.003-20.003h20.003v252.118c0 33.085 26.92 60.001 60.016 60.001l174.018-.058v19.987zm70.01-80.003c0 11.025-8.973 19.995-20.01 19.995l-224.025.074c-11.03 0-20.003-8.97-20.003-19.995V60.001c0-11.025 8.973-19.995 20.003-19.995h130.019V93.94c0 33.089 26.92 60.009 60.009 60.009h54.008v218.039z"></path>
  </symbol>
  <symbol xmlns="http://www.w3.org/2000/svg" viewBox="0 0 512 512" id="log-in">
    <path d="M452 0H60C26.916 0 0 26.916 0 60v80h40V60c0-11.028 8.972-20 20-20h392c11.028 0 20 8.972 20 20v392c0 11.028-8.972 20-20 20H60c-11.028 0-20-8.972-20-20v-80H0v80c0 33.084 26.916 60 60 60h392c33.084 0 60-26.916 60-60V60c0-33.084-26.916-60-60-60z"></path>
    <path d="M240 131.716L211.716 160l76 76H0v40h287.716l-76 76L240 380.284 364.284 256z"></path>
  </symbol>
  <symbol xmlns="http://www.w3.org/2000/svg" viewBox="0 0 512 512" id="email">
    <path d="M452 68H60C26.916 68 0 94.916 0 128v256c0 33.084 26.916 60 60 60h392c33.084 0 60-26.916 60-60V128c0-33.084-26.916-60-60-60zm20 316c0 11.028-8.972 20-20 20H60c-11.028 0-20-8.972-20-20V128c0-11.028 8.972-20 20-20h392c11.028 0 20 8.972 20 20v256z"></path>
    <path d="M468.604 92.937L256 251.074 43.396 92.937l-23.874 32.095L256 300.926l236.478-175.894z"></path>
  </symbol>
  <symbol xmlns="http://www.w3.org/2000/svg" viewBox="0 0 512 512" id="shopping-cart">
    <path d="M418.783 334.787c15.559-11.689 26.828-27.669 32.601-46.23L512 109.102H122.337l-4.299-47.67a66.998 66.998 0 00-21.543-43.627A67.002 67.002 0 0051.143.178H0V40.15h51.143c14.189 0 25.83 10.659 27.08 24.834l31.281 346.847.017.185c3.049 30.622 26.04 54.542 55.415 59.526 7.833 23.379 29.927 40.279 55.909 40.279 25.497 0 47.26-16.272 55.465-38.973h46.959c8.205 22.701 29.968 38.973 55.465 38.973 32.51 0 58.959-26.45 58.959-58.959s-26.449-58.959-58.959-58.959c-25.497 0-47.26 16.272-55.465 38.973H276.31c-8.205-22.701-29.968-38.973-55.465-38.973-24.644 0-45.792 15.203-54.59 36.718-9.159-3.636-15.886-12.105-16.95-22.484l-4.979-55.206h220.418c19.55.001 38.236-6.273 54.039-18.144zm-40.047 99.089c10.47 0 18.987 8.517 18.987 18.987s-8.517 18.987-18.987 18.987c-10.47 0-18.987-8.517-18.987-18.987s8.517-18.987 18.987-18.987zm-157.89 0c10.47 0 18.987 8.517 18.987 18.987s-8.517 18.987-18.987 18.987-18.987-8.517-18.987-18.987 8.517-18.987 18.987-18.987zm-80.124-120.915v-.001l-14.781-163.886h330.366l-42.875 126.932-.167.519c-6.6 21.453-26.552 36.436-48.519 36.436H140.722z"></path>
  </symbol>
  <symbol xmlns="http://www.w3.org/2000/svg" viewBox="0 0 512 512" id="user">
    <path d="M437.02 330.98c-27.883-27.882-61.071-48.523-97.281-61.018C378.521 243.251 404 198.548 404 148 404 66.393 337.607 0 256 0S108 66.393 108 148c0 50.548 25.479 95.251 64.262 121.962-36.21 12.495-69.398 33.136-97.281 61.018C26.629 379.333 0 443.62 0 512h40c0-119.103 96.897-216 216-216s216 96.897 216 216h40c0-68.38-26.629-132.667-74.98-181.02zM256 256c-59.551 0-108-48.448-108-108S196.449 40 256 40s108 48.448 108 108-48.449 108-108 108z"></path>
  </symbol>
</svg>