<svg width="45" height="45" style="fill:#fff" id="Layer_1" version="1.1" viewBox="0 0 64 64"  xml:space="preserve" xmlns="http://www.w3.org/2000/svg" xmlns:xlink="http://www.w3.org/1999/xlink">
  <path d="M51.063,0.25H12.938c-2.481,0-4.5,2.019-4.5,4.5v54.5c0,2.481,2.019,4.5,4.5,4.5h38.125c2.481,0,4.5-2.019,4.5-4.5V4.75  C55.563,2.269,53.544,0.25,51.063,0.25z M52.563,59.25c0,0.827-0.673,1.5-1.5,1.5H12.938c-0.827,0-1.5-0.673-1.5-1.5V4.75  c0-0.827,0.673-1.5,1.5-1.5h38.125c0.827,0,1.5,0.673,1.5,1.5V59.25z"/>
  <path d="M17.125,10.75H45.75c0.828,0,1.5-0.671,1.5-1.5s-0.672-1.5-1.5-1.5H17.125c-0.829,0-1.5,0.671-1.5,1.5  S16.296,10.75,17.125,10.75z"/><path d="M17.125,19.75H32.75c0.828,0,1.5-0.671,1.5-1.5s-0.672-1.5-1.5-1.5H17.125c-0.829,0-1.5,0.671-1.5,1.5  S16.296,19.75,17.125,19.75z"/>
  <path d="M17.125,28.75H40.25c0.828,0,1.5-0.671,1.5-1.5s-0.672-1.5-1.5-1.5H17.125c-0.829,0-1.5,0.671-1.5,1.5  S16.296,28.75,17.125,28.75z"/>
  <path d="M30.188,36.25c0-0.828-0.671-1.5-1.5-1.5H17.125c-0.829,0-1.5,0.672-1.5,1.5s0.671,1.5,1.5,1.5h11.563  C29.516,37.75,30.188,37.078,30.188,36.25z"/><path d="M47.384,50.445l-3.709,3.753l-3.854-8.623c-0.014-0.03-0.033-0.057-0.049-0.086c-0.025-0.048-0.051-0.097-0.082-0.142  c-0.029-0.045-0.063-0.084-0.097-0.124c-0.028-0.033-0.056-0.067-0.087-0.099c-0.046-0.045-0.095-0.084-0.146-0.123  c-0.021-0.016-0.038-0.035-0.061-0.051c-0.007-0.005-0.015-0.008-0.022-0.012c-0.052-0.034-0.106-0.063-0.162-0.09  c-0.035-0.018-0.068-0.037-0.104-0.052c-0.047-0.02-0.097-0.031-0.146-0.045c-0.045-0.014-0.089-0.029-0.135-0.038  c-0.047-0.009-0.094-0.01-0.141-0.015c-0.049-0.005-0.098-0.012-0.146-0.011c-0.046,0-0.092,0.007-0.137,0.012  c-0.052,0.005-0.103,0.008-0.153,0.019c-0.04,0.008-0.08,0.022-0.12,0.034c-0.056,0.017-0.111,0.032-0.165,0.055  c-0.01,0.004-0.02,0.006-0.029,0.01c-0.029,0.014-0.054,0.032-0.082,0.047c-0.051,0.026-0.101,0.053-0.148,0.085  c-0.04,0.027-0.076,0.059-0.112,0.09c-0.038,0.031-0.075,0.061-0.11,0.097c-0.04,0.041-0.075,0.085-0.11,0.131  c-0.02,0.024-0.043,0.045-0.061,0.071l-4.716,6.868l-1.161-1.191c-0.007-0.008-0.018-0.01-0.025-0.018  c-0.052-0.05-0.102-0.102-0.162-0.146c-0.092-0.067-0.19-0.12-0.291-0.164c-0.016-0.007-0.032-0.01-0.048-0.016  c-0.167-0.065-0.34-0.104-0.515-0.107c-0.015,0-0.029,0.003-0.044,0.003c-0.178,0.001-0.354,0.031-0.521,0.094  c-0.014,0.006-0.026,0.014-0.04,0.02c-0.167,0.068-0.324,0.166-0.46,0.297c-0.005,0.004-0.011,0.005-0.016,0.01  c-0.009,0.009-0.012,0.021-0.021,0.03c-0.049,0.051-0.099,0.099-0.141,0.157l-2.75,3.75c-0.49,0.668-0.346,1.606,0.322,2.097  c0.268,0.195,0.578,0.29,0.886,0.29c0.461,0,0.917-0.212,1.21-0.613l1.703-2.322l1.193,1.225c0.001,0.001,0.001,0.001,0.002,0.002  l0.005,0.006c0.002,0.002,0.004,0.002,0.006,0.004c0.066,0.067,0.139,0.13,0.219,0.186c0.06,0.041,0.126,0.061,0.189,0.092  c0.049,0.024,0.095,0.052,0.146,0.07c0.167,0.062,0.339,0.102,0.512,0.102c0,0,0,0,0.001,0h0c0.001,0,0.001,0,0.002,0  c0.168-0.001,0.332-0.039,0.491-0.094c0.035-0.013,0.069-0.024,0.104-0.039c0.155-0.067,0.299-0.158,0.426-0.277  c0.007-0.007,0.018-0.009,0.024-0.016c0.016-0.015,0.021-0.035,0.035-0.051c0.053-0.057,0.109-0.109,0.154-0.175l4.236-6.17  l3.641,8.144v0.001l0.018,0.039c0.072,0.161,0.174,0.297,0.289,0.417c0.011,0.012,0.014,0.027,0.025,0.038  c0.023,0.022,0.055,0.03,0.079,0.052c0.104,0.09,0.216,0.164,0.339,0.223c0.046,0.021,0.089,0.045,0.137,0.062  c0.159,0.057,0.325,0.096,0.497,0.096c0.001,0,0.002,0.001,0.003,0.001l0,0c0.001,0,0.001,0,0.001,0  c0.176,0,0.354-0.038,0.526-0.104c0.02-0.007,0.038-0.01,0.057-0.018c0.01-0.005,0.019-0.006,0.028-0.01  c0.166-0.074,0.308-0.178,0.431-0.298c0.007-0.007,0.018-0.009,0.024-0.017l5.25-5.313c0.582-0.59,0.576-1.539-0.013-2.122  C48.915,49.853,47.967,49.856,47.384,50.445z"/>
</svg>