<svg width="0" height="0" class="hidden">
  <symbol xmlns="http://www.w3.org/2000/svg" viewBox="0 0 512 512" id="parcel">
    <path d="M410.9 186.6c0-.1 0-.2-.1-.2 0-.2-.1-.3-.1-.5 0-.1-.1-.3-.1-.4 0-.1-.1-.2-.1-.3-.2-.5-.4-.9-.7-1.3l-65-95.5c-1.4-2.1-3.7-3.3-6.2-3.3H173.5c-2.5 0-4.8 1.2-6.2 3.3l-65 95.5c-.3.4-.5.9-.7 1.3 0 .1-.1.2-.1.3-.1.1-.1.3-.1.4 0 .2-.1.3-.1.5 0 .1 0 .2-.1.2-.1.5-.2 1-.2 1.5v231.3c0 4.1 3.4 7.5 7.5 7.5h295.1c4.1 0 7.5-3.4 7.5-7.5V188.1c-.1-.5-.1-1-.2-1.5zm-21.6-6h-96.9l-9.1-80.5h51.2l54.8 80.5zm-155.6 15h44.5v55L260.3 238c-1.3-.9-2.8-1.4-4.3-1.4s-3 .5-4.3 1.4l-17.9 12.6v-55zm34.5-95.5l9.1 80.5h-42.7l9.1-80.5h24.5zm-90.7 0h51.2l-9.1 80.5h-96.9l54.8-80.5zM396 411.9H116V195.6h102.8V265c0 2.8 1.6 5.4 4 6.7 2.5 1.3 5.5 1.1 7.8-.5l25.4-17.9 25.4 17.9c1.3.9 2.8 1.4 4.3 1.4 1.2 0 2.4-.3 3.5-.8 2.5-1.3 4-3.9 4-6.7v-69.4H396v216.2z"></path>
    <path d="M201 330.4h-53.2c-4.1 0-7.5 3.4-7.5 7.5s3.4 7.5 7.5 7.5H201c4.1 0 7.5-3.4 7.5-7.5s-3.4-7.5-7.5-7.5zm-26.6 31.5h-26.6c-4.1 0-7.5 3.4-7.5 7.5s3.4 7.5 7.5 7.5h26.6c4.1 0 7.5-3.4 7.5-7.5s-3.4-7.5-7.5-7.5z"></path>
  </symbol>
  <symbol xmlns="http://www.w3.org/2000/svg" viewBox="0 0 426.667 426.667" id="check">
    <path d="M421.876 56.307c-6.548-6.78-17.352-6.968-24.132-.42-.142.137-.282.277-.42.42L119.257 334.375l-90.334-90.334c-6.78-6.548-17.584-6.36-24.132.42-6.388 6.614-6.388 17.099 0 23.713l102.4 102.4c6.665 6.663 17.468 6.663 24.132 0L421.456 80.44c6.78-6.549 6.968-17.353.42-24.133z"></path>
  </symbol>
  <symbol xmlns="http://www.w3.org/2000/svg" viewBox="0 0 64 64" id="clock">
    <path d="M31.9 54.9C19.3 54.9 9 44.6 9 32 9 19.4 19.3 9.1 31.9 9.1c12.6 0 22.9 10.3 22.9 22.9.1 12.6-10.2 22.9-22.9 22.9zm0-43.4c-11.3 0-20.4 9.2-20.4 20.4s9.2 20.4 20.4 20.4 20.4-9.2 20.4-20.4-9.1-20.4-20.4-20.4z"></path>
    <path d="M39.1 43.7l-8.5-8.5V19.7h2.7v14.4l7.7 7.7-1.9 1.9"></path>
  </symbol>
</svg>